<svg width="40" height="40" viewBox="0 0 40 40" fill="none" xmlns="http://www.w3.org/2000/svg">
<rect width="40" height="40" rx="20" fill="black"/>
<g clip-path="url(#clip0_40046750_747750)">
<path d="M9.26074 25.3828H9.55209C9.56249 25.4765 9.59371 25.5389 9.63533 25.5701C9.67695 25.6118 9.74978 25.6222 9.84343 25.6222C10.0203 25.6222 10.1036 25.5493 10.1036 25.4141C10.1036 25.3516 10.0827 25.2996 10.0515 25.2684C10.0203 25.2372 9.95789 25.2164 9.88505 25.1956L9.72897 25.1747C9.43763 25.1227 9.29196 24.977 9.29196 24.7273C9.29196 24.5816 9.34398 24.4568 9.43763 24.3735C9.54168 24.2903 9.66654 24.2383 9.83302 24.2383C9.9891 24.2383 10.114 24.2799 10.2076 24.3631C10.3013 24.4464 10.3533 24.5712 10.3637 24.7169H10.0723C10.0723 24.6337 10.0411 24.5817 9.99951 24.5504C9.95789 24.5192 9.89545 24.4984 9.82262 24.4984C9.73938 24.4984 9.68735 24.5192 9.64573 24.5504C9.60411 24.5817 9.5833 24.6337 9.5833 24.7065C9.5833 24.7585 9.60411 24.8106 9.63533 24.8418C9.66654 24.873 9.72897 24.8938 9.80181 24.9146L9.96829 24.9458C10.2492 24.9979 10.3845 25.1435 10.3845 25.4037C10.3845 25.5701 10.3325 25.695 10.2284 25.7782C10.1244 25.8615 9.9891 25.9031 9.81221 25.9031C9.63533 25.9031 9.50006 25.8615 9.40641 25.7782C9.32317 25.6742 9.27115 25.5493 9.26074 25.3828Z" fill="black"/>
<path d="M11.8099 24.5283V25.881H11.4977V24.5283H11.0815V24.2578H12.2157V24.5283H11.8099Z" fill="black"/>
<path d="M13.1003 25.5585L13.0066 25.8706H12.6841L13.2564 24.2578H13.5061L14.0784 25.8706H13.7558L13.6622 25.5585H13.1003ZM13.3812 24.6844L13.1835 25.3087H13.5789L13.3812 24.6844Z" fill="black"/>
<path d="M15.1186 25.2268V25.8823H14.8169V24.2695H15.4308C15.5869 24.2695 15.7117 24.3112 15.8054 24.3944C15.899 24.4776 15.9511 24.6025 15.9511 24.7482C15.9511 24.8522 15.9302 24.9459 15.8782 25.0187C15.8262 25.0915 15.7534 25.1436 15.6701 25.1852L16.0239 25.8927H15.6701L15.3684 25.2372H15.1186V25.2268ZM15.41 24.9667C15.4828 24.9667 15.5348 24.9459 15.5765 24.9042C15.6181 24.8626 15.6389 24.8106 15.6389 24.7378C15.6389 24.6753 15.6181 24.6233 15.5765 24.5817C15.5348 24.5401 15.4828 24.5193 15.41 24.5193H15.1186V24.9563H15.41V24.9667Z" fill="black"/>
<path d="M17.0854 24.2578V25.6105H17.793V25.881H16.7837V24.2682H17.0854V24.2578Z" fill="black"/>
<path d="M18.8955 24.2578V25.881H18.5938V24.2682H18.8955V24.2578Z" fill="black"/>
<path d="M20.9874 25.8823H20.6857L20.0926 24.873V25.8823H19.77V24.2695H20.0718L20.6649 25.2788V24.2695H20.9666V25.8823H20.9874Z" fill="black"/>
<path d="M22.1523 25.4232V25.8706H21.8506V24.2578H22.1523V25.007L22.7142 24.2578H23.0784L22.5581 24.9029L23.12 25.8706H22.7662L22.3708 25.1527L22.1523 25.4232Z" fill="black"/>
</g>
<path d="M8 25.1363H8.5045C8.52252 25.2984 8.57658 25.4065 8.64865 25.4606C8.72072 25.5327 8.84685 25.5507 9.00901 25.5507C9.31532 25.5507 9.45946 25.4246 9.45946 25.1903C9.45946 25.0822 9.42342 24.9921 9.36937 24.9381C9.31532 24.884 9.20721 24.848 9.08108 24.812L8.81081 24.7759C8.30631 24.6858 8.05405 24.4336 8.05405 24.0011C8.05405 23.7489 8.14414 23.5327 8.30631 23.3885C8.48649 23.2444 8.7027 23.1543 8.99099 23.1543C9.26126 23.1543 9.47748 23.2264 9.63964 23.3705C9.8018 23.5147 9.89189 23.7309 9.90991 23.9831H9.40541C9.40541 23.839 9.35135 23.7489 9.27928 23.6948C9.20721 23.6408 9.0991 23.6047 8.97297 23.6047C8.82883 23.6047 8.73874 23.6408 8.66667 23.6948C8.59459 23.7489 8.55856 23.839 8.55856 23.9651C8.55856 24.0552 8.59459 24.1453 8.64865 24.1993C8.7027 24.2534 8.81081 24.2894 8.93694 24.3255L9.22523 24.3795C9.71171 24.4696 9.94595 24.7219 9.94595 25.1723C9.94595 25.4606 9.85586 25.6768 9.67568 25.821C9.4955 25.9651 9.26126 26.0372 8.95495 26.0372C8.64865 26.0372 8.41441 25.9651 8.25225 25.821C8.10811 25.6408 8.01802 25.4246 8 25.1363ZM12.4144 23.6588V26.0011H11.8739V23.6588H11.1532V23.1903H13.1171V23.6588H12.4144ZM14.6486 25.4426L14.4865 25.9831H13.9279L14.9189 23.1903H15.3514L16.3423 25.9831H15.7838L15.6216 25.4426H14.6486ZM15.1351 23.9291L14.7928 25.0102H15.4775L15.1351 23.9291ZM18.1441 24.866V26.0011H17.6216V23.2083H18.6847C18.955 23.2083 19.1712 23.2804 19.3333 23.4246C19.4955 23.5687 19.5856 23.7849 19.5856 24.0372C19.5856 24.2174 19.5495 24.3795 19.4595 24.5056C19.3694 24.6318 19.2432 24.7219 19.0991 24.7939L19.7117 26.0192H19.0991L18.5766 24.884H18.1441V24.866ZM18.6486 24.4156C18.7748 24.4156 18.8649 24.3795 18.9369 24.3074C19.009 24.2354 19.045 24.1453 19.045 24.0192C19.045 23.9111 19.009 23.821 18.9369 23.7489C18.8649 23.6768 18.7748 23.6408 18.6486 23.6408H18.1441V24.3975H18.6486V24.4156ZM21.5495 23.1903V25.5327H22.7748V26.0011H21.027V23.2083H21.5495V23.1903ZM24.6847 23.1903V26.0011H24.1622V23.2083H24.6847V23.1903ZM28.3063 26.0011H27.7838L26.7568 24.2534V26.0011H26.1982V23.2083H26.7207L27.7477 24.9561V23.2083H28.2703V26.0011H28.3063ZM30.3243 25.2083V25.9831H29.8018V23.1903H30.3243V24.4876L31.2973 23.1903H31.9279L31.027 24.3074L32 25.9831H31.3874L30.7027 24.7399L30.3243 25.2083Z" fill="white"/>
<path d="M8.18505 21.1746L7.85059 21.5005H10.8093C18.7848 13.4907 30.2679 12.0671 33.1923 11.8269V11.8184C17.2326 12.736 9.85734 19.5624 8.18505 21.1746Z" fill="white"/>
<path d="M16.315 21.5021H19.2394L15.1916 18.5177C14.7027 18.8521 14.1968 19.2295 13.7165 19.6068L16.315 21.5021ZM10.9722 15.3789H8.04785L11.4782 17.8916C11.9756 17.5572 12.5502 17.197 13.0819 16.8883L10.9722 15.3789Z" fill="white"/>
<defs>
<clipPath id="clip0_40046750_747750">
<rect width="40" height="20.3101" fill="white" transform="translate(0 8)"/>
</clipPath>
</defs>
</svg>
