<svg width="40" height="40" viewBox="0 0 40 40" fill="none" xmlns="http://www.w3.org/2000/svg">
<rect width="40" height="40" rx="20" fill="white"/>
<path d="M15.9931 0.307444C10.6795 1.49315 6.32406 4.43998 3.32754 8.90381C-1.91638 16.7678 -0.871084 27.3171 5.81883 34.0477C7.82233 36.0704 10.8711 38.0233 13.1708 38.7731C14.0244 39.0521 14.129 39.0521 14.5122 38.7906C14.9304 38.5116 14.9478 38.4418 14.9478 36.4366V34.379L13.4147 34.4662C11.6202 34.5534 10.2265 34.2395 9.39027 33.5246C9.09411 33.2805 8.51919 32.4435 8.11849 31.6763C7.45647 30.386 6.96866 29.7931 5.60977 28.59C5.15681 28.189 5.13939 28.1715 5.45298 27.9448C6.20211 27.3869 7.7178 27.9274 8.67599 29.0782C10.3485 31.1183 10.9931 31.6589 11.9513 31.8681C12.8049 32.0425 13.5889 31.9727 14.7736 31.624C14.9304 31.5717 15.1394 31.2055 15.244 30.787C15.3485 30.386 15.6272 29.7757 15.8537 29.4444L16.2718 28.8341L14.8607 28.5551C11.899 27.9448 10.0697 26.8812 8.86762 25.0678C7.75264 23.3938 7.38678 21.9466 7.36936 19.2439C7.36936 16.6981 7.64811 15.6519 8.74567 14.222C9.23348 13.5943 9.28574 13.4025 9.14637 13.0363C8.88505 12.4086 8.95473 9.75821 9.23348 8.95612C9.45996 8.36327 9.58191 8.25864 10.0523 8.20633C10.8363 8.11915 12.2997 8.62482 13.7805 9.46179L15.0523 10.1941L16.1673 9.93258C17.7527 9.56641 22.5088 9.58384 23.9374 9.93258L25.0175 10.2116L26.028 9.60128C27.3694 8.79919 29.0768 8.17146 29.9304 8.17146C30.6099 8.17146 30.6099 8.1889 30.8886 9.07818C31.1848 10.1069 31.237 11.9727 30.9757 12.862C30.8363 13.3851 30.8712 13.542 31.2545 14.0477C33.1534 16.5586 33.3625 20.726 31.7597 24.1436C30.6795 26.393 28.3973 27.9623 25.3311 28.5377L23.8677 28.8167L24.4077 29.7757L24.9652 30.7522L25.0175 34.6406L25.0872 38.529L25.5227 38.808C25.9234 39.0695 26.0105 39.0695 26.8468 38.7731C28.2405 38.3023 30.6273 37.012 31.9339 36.0181C39.704 30.1942 42.2127 19.7495 37.9095 11.066C35.3834 5.95698 30.6099 2.03369 25.1395 0.568997C22.7527 -0.0587293 18.2579 -0.198224 15.9931 0.307444Z" fill="black"/>
</svg>
