<svg width="40" height="40" viewBox="0 0 40 40" fill="none" xmlns="http://www.w3.org/2000/svg">
<rect width="40" height="40" rx="20" fill="#26241E"/>
<g clip-path="url(#clip0_5936_74831)">
<path fill-rule="evenodd" clip-rule="evenodd" d="M24.4037 10.7939L31.022 14.5568V14.6366L24.3358 18.3592L24.3514 16.4186L23.5988 16.3911C22.6281 16.3654 22.1221 16.3929 21.5198 16.4919C20.5445 16.6523 19.6517 17.0208 18.6351 17.7312L16.6496 19.1108C16.3892 19.2896 16.1958 19.4188 16.0262 19.5279L15.5542 19.8231L15.1902 20.0376L15.5432 20.2484L16.029 20.5582C16.4653 20.8461 17.1015 21.2879 18.5049 22.2687C19.5224 22.9792 20.4143 23.3477 21.3897 23.5081L21.6647 23.5493C22.3008 23.6327 22.9251 23.6355 24.2543 23.5796L24.2744 21.6005L30.8927 25.3634V25.4432L24.2066 29.1667L24.2194 27.4598L23.6373 27.48C22.3668 27.5185 21.6784 27.4818 20.7608 27.3315C19.208 27.0748 17.7725 26.4827 16.2866 25.4441L14.3084 24.0691C14.0809 23.9122 13.8501 23.76 13.6163 23.6126L13.1882 23.3559C12.9571 23.2227 12.7248 23.0913 12.4916 22.9617C11.6657 22.5025 9.51608 21.9397 9 21.9397V18.064L9.12833 18.0677C9.64533 18.0612 11.7958 17.4975 12.6199 17.0373L13.5512 16.5057L13.9527 16.2545C14.3451 15.9978 14.9354 15.589 16.4149 14.5559C17.9008 13.5173 19.3354 12.9242 20.8892 12.6685C21.9452 12.4943 22.6987 12.4732 24.3853 12.542L24.4037 10.7939Z" fill="white"/>
</g>
<defs>
<clipPath id="clip0_5936_74831">
<rect width="22" height="22" fill="white" transform="translate(9 9)"/>
</clipPath>
</defs>
</svg>
