<svg width="40" height="40" viewBox="0 0 40 40" fill="none" xmlns="http://www.w3.org/2000/svg">
<path d="M0 20C0 8.95431 8.95431 0 20 0C31.0457 0 40 8.95431 40 20C40 31.0457 31.0457 40 20 40C8.95431 40 0 31.0457 0 20Z" fill="#F0EFEA"/>
<path d="M32.9005 19.0137L29.2575 18.1534L28.607 17.8887L11.8882 18.021V26.2269L32.9005 26.2931V19.0137Z" fill="white"/>
<path d="M26.0707 25.5C26.1754 25.2182 26.2123 24.9149 26.1783 24.6156C26.1444 24.3163 26.0405 24.0296 25.8755 23.7794C25.706 23.5727 25.4981 23.402 25.2637 23.2771C25.0293 23.1522 24.773 23.0755 24.5094 23.0515L13.19 22.9191C13.125 22.9191 13.0599 22.853 12.9949 22.853C12.9797 22.8414 12.9674 22.8264 12.959 22.8092C12.9505 22.7919 12.9461 22.7729 12.9461 22.7537C12.9461 22.7344 12.9505 22.7154 12.959 22.6982C12.9674 22.681 12.9797 22.666 12.9949 22.6544C13.0599 22.5221 13.125 22.4559 13.2551 22.4559L24.6395 22.3235C25.3623 22.2419 26.0506 21.966 26.6337 21.524C27.2168 21.082 27.6737 20.49 27.9573 19.8088L28.6078 18.0882C28.6078 18.0221 28.6728 17.9559 28.6078 17.8897C28.2541 16.2872 27.3959 14.8459 26.1634 13.7849C24.931 12.7239 23.3918 12.1012 21.7797 12.0113C20.1675 11.9214 18.5706 12.3694 17.2316 13.2871C15.8926 14.2047 14.8847 15.542 14.361 17.0956C13.6812 16.6017 12.8519 16.3674 12.0191 16.4338C11.2547 16.5205 10.5421 16.8691 9.99832 17.4223C9.4545 17.9755 9.11183 18.7004 9.02661 19.478C8.98329 19.8759 9.00527 20.2785 9.09166 20.6691C7.85495 20.7039 6.68037 21.2281 5.81779 22.1303C4.9552 23.0325 4.47267 24.2415 4.47284 25.5C4.46217 25.7445 4.48405 25.9894 4.5379 26.228C4.54088 26.2796 4.5624 26.3284 4.59838 26.365C4.63435 26.4015 4.68227 26.4234 4.73306 26.4265H25.6153C25.7454 26.4265 25.8755 26.3603 25.8755 26.228L26.0707 25.5Z" fill="#F48120"/>
<path d="M29.6498 18.0879H29.3246C29.2595 18.0879 29.1945 18.1541 29.1294 18.2202L28.674 19.8085C28.5694 20.0903 28.5325 20.3936 28.5664 20.6929C28.6004 20.9922 28.7042 21.2789 28.8692 21.5291C29.0387 21.7358 29.2466 21.9065 29.481 22.0314C29.7154 22.1563 29.9717 22.233 30.2353 22.257L32.6423 22.3894C32.7074 22.3894 32.7724 22.4555 32.8375 22.4555C32.8526 22.4671 32.8649 22.4821 32.8734 22.4993C32.8818 22.5165 32.8863 22.5355 32.8863 22.5548C32.8863 22.5741 32.8818 22.5931 32.8734 22.6103C32.8649 22.6275 32.8526 22.6425 32.8375 22.6541C32.7724 22.7864 32.7074 22.8526 32.5772 22.8526L30.1052 22.985C29.3825 23.0665 28.6941 23.3425 28.111 23.7845C27.5279 24.2265 27.0711 24.8185 26.7875 25.4997L26.6574 26.0952C26.5923 26.1614 26.6574 26.2938 26.7875 26.2938H35.3746C35.4011 26.2976 35.4281 26.2951 35.4535 26.2865C35.4789 26.2779 35.502 26.2634 35.5209 26.2441C35.5399 26.2249 35.5541 26.2014 35.5626 26.1755C35.5711 26.1497 35.5735 26.1222 35.5697 26.0952C35.7246 25.5345 35.812 24.9568 35.8299 24.3747C35.8196 22.7105 35.1652 21.1176 34.0084 19.9408C32.8517 18.7641 31.2857 18.0984 29.6498 18.0879Z" fill="#FAAD3F"/>
</svg>
