<svg width="40" height="40" viewBox="0 0 40 40" fill="none" xmlns="http://www.w3.org/2000/svg">
<rect width="40" height="40" rx="20" fill="#74AA9C"/>
<g clip-path="url(#clip0_40038870_239162)">
<path d="M31.897 17.4804C32.5272 15.5889 32.3102 13.5168 31.3024 11.7964C29.7867 9.15746 26.7399 7.79982 23.7642 8.43871C22.4404 6.94739 20.5385 6.0993 18.5446 6.11146C15.5029 6.10451 12.8041 8.06285 11.8683 10.9569C9.91435 11.3571 8.22772 12.5802 7.24074 14.3137C5.71383 16.9457 6.06192 20.2634 8.10185 22.5203C7.47164 24.4118 7.68866 26.4838 8.69647 28.2043C10.2121 30.8432 13.259 32.2009 16.2347 31.562C17.5576 33.0533 19.4604 33.9014 21.4543 33.8884C24.4977 33.8962 27.1973 31.9361 28.1331 29.0394C30.0871 28.6392 31.7737 27.4161 32.7607 25.6826C34.2859 23.0507 33.9369 19.7356 31.8979 17.4786L31.897 17.4804ZM21.456 32.0733C20.2381 32.075 19.0584 31.6488 18.1236 30.8684C18.1661 30.8458 18.2399 30.805 18.2876 30.7755L23.8189 27.5811C24.1019 27.4205 24.2755 27.1193 24.2737 26.7937V18.996L26.6114 20.3458C26.6366 20.358 26.6531 20.3823 26.6565 20.4101V26.8675C26.6531 29.7391 24.3275 32.0672 21.456 32.0733ZM10.272 27.2964C9.66175 26.2425 9.44213 25.0073 9.65133 23.8085C9.69213 23.8328 9.76418 23.8771 9.81539 23.9066L15.3466 27.101C15.627 27.2651 15.9742 27.2651 16.2555 27.101L23.0081 23.2017V25.9014C23.0098 25.9292 22.9968 25.9561 22.9751 25.9734L17.384 29.2017C14.8935 30.6358 11.713 29.7833 10.2729 27.2964H10.272ZM8.81626 15.2226C9.4239 14.167 10.3831 13.3597 11.5255 12.9404C11.5255 12.9882 11.5229 13.0724 11.5229 13.1314V19.5212C11.5211 19.8458 11.6947 20.147 11.9769 20.3076L18.7295 24.2061L16.3918 25.5559C16.3683 25.5715 16.3388 25.5741 16.3128 25.5628L10.7208 22.3319C8.23553 20.8927 7.3831 17.713 8.81539 15.2234L8.81626 15.2226ZM28.0229 19.6922L21.2703 15.7929L23.6079 14.4439C23.6314 14.4283 23.6609 14.4257 23.6869 14.437L29.2789 17.6653C31.7685 19.1036 32.6218 22.2885 31.1834 24.7781C30.5749 25.8319 29.6166 26.6392 28.4751 27.0594V20.4786C28.4777 20.154 28.305 19.8536 28.0237 19.6922H28.0229ZM30.3492 16.1904C30.3085 16.1653 30.2364 16.1219 30.1852 16.0924L24.6539 12.8979C24.3736 12.7339 24.0263 12.7339 23.7451 12.8979L16.9925 16.7972V14.0976C16.9907 14.0698 17.0038 14.0429 17.0255 14.0255L22.6166 10.7998C25.1071 9.36319 28.2911 10.2182 29.7269 12.7095C30.3336 13.7616 30.5532 14.9934 30.3475 16.1904H30.3492ZM15.7216 21.0021L13.3831 19.6523C13.3579 19.6401 13.3414 19.6158 13.338 19.588V13.1306C13.3397 10.2556 15.6722 7.92569 18.5472 7.92743C19.7633 7.92743 20.9404 8.35451 21.8753 9.13229C21.8328 9.15486 21.7598 9.19566 21.7112 9.22517L16.18 12.4196C15.897 12.5802 15.7234 12.8806 15.7251 13.2061L15.7216 21.0003V21.0021ZM16.9916 18.2642L19.9994 16.5273L23.0072 18.2634V21.7365L19.9994 23.4726L16.9916 21.7365V18.2642Z" fill="white"/>
</g>
<defs>
<clipPath id="clip0_40038870_239162">
<rect width="27.7778" height="27.7778" fill="white" transform="translate(6.11133 6.11133)"/>
</clipPath>
</defs>
</svg>
