<svg width="40" height="40" viewBox="0 0 40 40" fill="none" xmlns="http://www.w3.org/2000/svg">
<rect width="40" height="40" rx="20" fill="#F1F3F5"/>
<g clip-path="url(#clip0_5936_74836)">
<path d="M25 27.9517V30.8883C25 32.6064 23.6014 34 21.8761 34C20.1507 34 18.7521 32.608 18.7521 30.8883V23.1999L25 27.9517Z" fill="#34A853"/>
<path d="M25 9.11163V27.9517L18.7521 23.1999V15.7072L23.8642 11.5106C24.6139 10.8965 25 10.0073 25 9.11163Z" fill="url(#paint0_linear_5936_74836)"/>
<path d="M24.9984 9.00347C25 9.03846 25 9.07346 25 9.11005C25 10.0057 24.6139 10.8949 23.8642 11.509L18.7521 15.7056V9.11164C18.7521 8.09352 19.244 7.18675 20.0081 6.61883C20.0626 6.57747 20.1171 6.53929 20.1763 6.5027C20.2036 6.4852 20.2292 6.4677 20.2564 6.45179C20.3061 6.41998 20.359 6.39134 20.407 6.36589L20.5448 6.29748L20.6601 6.24499C20.7066 6.2259 20.7531 6.20681 20.8027 6.18931C20.8492 6.17181 20.8988 6.1559 20.9469 6.13999C21.0366 6.11295 21.1279 6.0875 21.2224 6.06841C21.2497 6.06204 21.2785 6.05727 21.309 6.05091C21.3298 6.04772 21.3506 6.04454 21.3714 6.04136C21.4083 6.035 21.4451 6.03023 21.482 6.02545C21.5252 6.01909 21.5685 6.01432 21.6133 6.01114C21.6486 6.00795 21.6838 6.00477 21.7191 6.00318C21.7703 6.00159 21.8232 6 21.8761 6H21.8777C21.9914 6 22.1019 6.00636 22.2141 6.0175C22.2686 6.02386 22.3246 6.03182 22.3823 6.04136C22.4368 6.04932 22.4912 6.06045 22.5489 6.07318C22.6034 6.08431 22.6578 6.09863 22.7123 6.11454C22.7572 6.12567 22.8036 6.13999 22.8485 6.1559C22.9366 6.18453 23.0247 6.21635 23.108 6.25294C23.1497 6.27044 23.1913 6.28953 23.233 6.30862C23.2858 6.33407 23.3387 6.36112 23.39 6.38816C23.4669 6.43111 23.5406 6.47565 23.6142 6.52497C23.6223 6.53133 23.6303 6.53611 23.6383 6.54088C23.7168 6.59497 23.7921 6.65383 23.8674 6.71428C23.9042 6.74609 23.9411 6.77632 23.9779 6.80973L23.9811 6.81291C24.0164 6.84632 24.0516 6.87972 24.0868 6.91472C24.1221 6.94972 24.1573 6.98631 24.191 7.02131C24.2599 7.09448 24.3223 7.17243 24.3816 7.25197C24.4233 7.30606 24.4617 7.36333 24.4986 7.41901C24.5162 7.44605 24.5338 7.47151 24.5498 7.49855C24.5819 7.54787 24.6107 7.60036 24.6363 7.64809C24.6556 7.68627 24.686 7.74831 24.7052 7.7849C24.7228 7.82308 24.7405 7.86126 24.7565 7.89944C24.7757 7.94557 24.7949 7.9933 24.8126 8.04102C24.8302 8.08715 24.8462 8.13647 24.8606 8.18419C24.8814 8.2526 24.8991 8.321 24.9151 8.38782C24.9247 8.41964 24.9311 8.44986 24.9359 8.48168C24.9455 8.52622 24.9535 8.56917 24.9615 8.61212C24.9679 8.64712 24.9712 8.68212 24.976 8.71712C24.9824 8.76007 24.9872 8.80302 24.9904 8.84757C24.9936 8.88256 24.9968 8.91756 24.9984 8.95256C24.9968 8.96847 24.9984 8.98597 24.9984 9.00347Z" fill="#EA4335"/>
<path d="M19.8864 6.70951C19.9249 6.6777 19.9649 6.64747 20.005 6.61884C19.244 7.18676 18.7522 8.09193 18.7522 9.11165V15.7072L16.0993 17.8882C15.5193 18.367 14.8176 18.5977 14.1176 18.5977C13.2188 18.5977 12.3265 18.2127 11.7113 17.4666C10.6172 16.1399 10.8062 14.18 12.1343 13.0887L19.8864 6.70951Z" fill="#FBBC04"/>
</g>
<defs>
<linearGradient id="paint0_linear_5936_74836" x1="21.8761" y1="28.0981" x2="21.8761" y2="9.10416" gradientUnits="userSpaceOnUse">
<stop stop-color="#1A73E8"/>
<stop offset="1" stop-color="#4285F4"/>
</linearGradient>
<clipPath id="clip0_5936_74836">
<rect width="14" height="28" fill="white" transform="translate(11 6)"/>
</clipPath>
</defs>
</svg>
