<svg width="40" height="40" viewBox="0 0 40 40" fill="none" xmlns="http://www.w3.org/2000/svg">
<g clip-path="url(#clip0_40038870_247621)">
<g clip-path="url(#clip1_40038870_247621)">
<path d="M1.11055 25.6637C3.54378 33.7769 11.0693 39.6932 19.9746 39.6932C30.8502 39.6932 39.6669 30.8766 39.6669 20.0009C39.6669 9.12521 30.8502 0.308594 19.9746 0.308594C9.53886 0.308594 0.999169 8.42736 0.324707 18.6926C1.60101 20.8323 2.0964 22.156 1.10932 25.6637H1.11055Z" fill="url(#paint0_linear_40038870_247621)"/>
<path d="M1.11055 25.6637C3.54378 33.7769 11.0693 39.6932 19.9746 39.6932C30.8502 39.6932 39.6669 30.8766 39.6669 20.0009C39.6669 9.12521 30.8502 0.308594 19.9746 0.308594C9.53886 0.308594 0.999169 8.42736 0.324707 18.6926C1.60101 20.8323 2.0964 22.156 1.10932 25.6637H1.11055Z" fill="url(#paint1_linear_40038870_247621)"/>
<path d="M18.9598 15.0679L18.9617 15.1651L14.1432 22.1651C13.3629 22.1294 12.5802 22.2666 11.8368 22.5725C11.5132 22.704 11.2042 22.869 10.9149 23.0648L0.333387 18.7036C0.333387 18.7036 0.0884637 22.7319 1.10877 25.7337L8.58939 28.8205C8.95862 30.4992 10.1155 31.9712 11.8152 32.6789C13.1524 33.2346 14.6555 33.2367 15.9943 32.685C17.3331 32.1332 18.3981 31.0726 18.9555 29.7362C19.2529 29.0243 19.3964 28.2576 19.3765 27.4863L26.2645 22.5602L26.4337 22.5632C30.5598 22.5632 33.9137 19.1996 33.9137 15.0679C33.9137 10.9362 30.566 7.58479 26.4337 7.57617C22.3094 7.57617 18.9537 10.9362 18.9537 15.0679H18.9598ZM17.8029 29.2525C16.9082 31.4063 14.4392 32.4199 12.2934 31.5257C11.3412 31.1255 10.5693 30.3892 10.1248 29.4568L12.5598 30.466C12.936 30.6226 13.3394 30.7035 13.7468 30.7042C14.1543 30.7048 14.5579 30.6252 14.9345 30.4698C15.3112 30.3144 15.6536 30.0863 15.942 29.7986C16.2305 29.5108 16.4595 29.1691 16.6158 28.7928C16.9325 28.0325 16.9343 27.1776 16.6211 26.416C16.3078 25.6543 15.705 25.0481 14.9451 24.7306L12.422 23.6876C13.3931 23.3183 14.4971 23.306 15.5297 23.7349C16.5758 24.1676 17.3758 24.9823 17.8042 26.0242C18.2325 27.066 18.23 28.2149 17.798 29.2525M26.4405 20.0617C25.1183 20.0581 23.8514 19.5307 22.9174 18.5949C21.9833 17.6591 21.4582 16.3913 21.4571 15.0691C21.4585 13.7471 21.9838 12.4796 22.9178 11.5441C23.8518 10.6086 25.1185 10.0813 26.4405 10.0777C27.7626 10.081 29.0296 10.6081 29.9639 11.5437C30.8982 12.4792 31.4236 13.7469 31.4251 15.0691C31.4239 16.3915 30.8987 17.6595 29.9643 18.5953C29.03 19.5311 27.7628 20.0585 26.4405 20.0617ZM22.7063 15.0611C22.7055 14.0677 23.0991 13.1146 23.8007 12.4113C24.5023 11.7079 25.4544 11.312 26.4478 11.3103C28.5125 11.3103 30.1918 12.9903 30.1918 15.0611C30.1923 16.0547 29.7982 17.0079 29.0961 17.711C28.394 18.4141 27.4415 18.8097 26.4478 18.8106C25.4545 18.8092 24.5024 18.4134 23.8008 17.7104C23.0991 17.0073 22.7058 16.0544 22.7063 15.0611Z" fill="white"/>
</g>
</g>
<defs>
<linearGradient id="paint0_linear_40038870_247621" x1="1967.43" y1="0.308594" x2="1967.43" y2="3938.77" gradientUnits="userSpaceOnUse">
<stop stop-color="#111D2E"/>
<stop offset="0.212" stop-color="#051839"/>
<stop offset="0.407" stop-color="#0A1B48"/>
<stop offset="0.581" stop-color="#132E62"/>
<stop offset="0.738" stop-color="#144B7E"/>
<stop offset="0.873" stop-color="#136497"/>
<stop offset="1" stop-color="#1387B8"/>
</linearGradient>
<linearGradient id="paint1_linear_40038870_247621" x1="19.9958" y1="0.308594" x2="19.9958" y2="39.6933" gradientUnits="userSpaceOnUse">
<stop stop-color="#111D2E"/>
<stop offset="0.212" stop-color="#051839"/>
<stop offset="0.407" stop-color="#0A1B48"/>
<stop offset="0.581" stop-color="#132E62"/>
<stop offset="0.738" stop-color="#144B7E"/>
<stop offset="0.873" stop-color="#136497"/>
<stop offset="1" stop-color="#1387B8"/>
</linearGradient>
<clipPath id="clip0_40038870_247621">
<rect width="40" height="40" rx="20" fill="white"/>
</clipPath>
<clipPath id="clip1_40038870_247621">
<rect width="40" height="40" fill="white"/>
</clipPath>
</defs>
</svg>
