<svg width="40" height="40" viewBox="0 0 40 40" fill="none" xmlns="http://www.w3.org/2000/svg">
<rect width="40" height="40" rx="20" fill="#D1FF17"/>
<path d="M15.8455 7C17.9199 7.04367 19.6009 8.01485 19.7625 10.1885C20.0883 14.5709 15.063 16.4027 12.5086 18.9814C10.855 20.651 12.5159 23.4607 14.7205 21.9961C16.7645 20.6382 18.0472 18.2277 19.6531 16.4062C21.2069 14.6427 22.8168 12.7925 25.2957 12.5645C29.2677 12.1991 31.4221 15.9509 31.702 19.4746C32.4595 19.4748 33.2447 19.4846 33.9998 19.4639C33.9728 20.5305 33.9919 21.6773 33.9901 22.75H31.7049C31.5425 25.192 30.997 27.487 29.6268 29.5527C28.1062 31.9652 24.5253 33.4965 21.994 31.6289C18.999 29.4191 20.0721 26.3095 21.8309 23.792C21.9024 23.6946 21.9771 23.5996 22.0545 23.5068C23.5394 21.6994 25.2377 20.4525 27.4949 19.7695C27.9199 19.6409 28.4538 19.4725 28.8885 19.4297C28.7462 18.1579 28.3507 16.9752 27.0721 16.4355C23.9384 15.1534 21.5634 18.4213 19.9031 20.5811C18.3908 22.5483 16.7277 25.1542 14.3582 26.1455C13.3846 26.5527 11.8692 26.4156 10.9354 25.9932C9.73722 25.4509 8.91272 24.5486 8.46368 23.3164C7.00225 19.6943 10.0808 17.0616 12.7352 15.1865C13.9893 14.3007 15.8192 13.2461 16.4627 11.8262C16.6325 11.4276 16.7627 11.0155 16.5652 10.5986C16.1341 9.60445 15.3381 9.62625 14.5174 10.1504C12.7735 11.2643 11.8999 13.0713 9.82208 13.8369C8.57098 14.2979 7.27794 14.3525 6.02814 13.8486C5.97184 12.8788 6.02096 11.757 6.00079 10.7627C9.27536 11.7886 10.303 9.59785 12.6678 7.93848C13.4814 7.36754 14.8591 7.04869 15.8455 7ZM28.6805 22.7236C26.7246 23.1802 25.162 24.2367 24.1024 25.9521C23.5719 26.8109 23.0121 27.9897 23.8563 28.8359C24.8155 29.5907 25.8777 29.0369 26.6102 28.2646C27.7875 27.0234 28.415 25.2548 28.6229 23.5801C28.6385 23.4537 28.7626 22.7827 28.6805 22.7236Z" fill="#141314"/>
</svg>
