<svg width="40" height="40" viewBox="0 0 40 40" fill="none" xmlns="http://www.w3.org/2000/svg">
<path d="M20 0C8.95968 0 0 8.95968 0 20C0 31.0403 8.95968 40 20 40C31.0403 40 40 31.0403 40 20C40 8.95968 31.0403 0 20 0Z" fill="#1ED760"/>
<path d="M32.7903 17.9919C32.371 17.9919 32.1129 17.8871 31.75 17.6774C26.0081 14.25 15.7419 13.4274 9.09678 15.2823C8.80646 15.3629 8.44356 15.4919 8.05646 15.4919C6.99195 15.4919 6.17743 14.6613 6.17743 13.5887C6.17743 12.4919 6.85485 11.871 7.58066 11.6613C10.4194 10.8306 13.5968 10.4355 17.0565 10.4355C22.9436 10.4355 29.1129 11.6613 33.621 14.2903C34.25 14.6532 34.6613 15.1532 34.6613 16.1129C34.6613 17.2097 33.7742 17.9919 32.7903 17.9919ZM30.2903 24.1371C29.871 24.1371 29.5887 23.9516 29.2984 23.7984C24.2581 20.8145 16.7419 19.6129 10.0565 21.4274C9.66936 21.5323 9.45969 21.6371 9.09678 21.6371C8.23388 21.6371 7.53227 20.9355 7.53227 20.0726C7.53227 19.2097 7.95162 18.6371 8.78227 18.4032C11.0242 17.7742 13.3145 17.3065 16.6694 17.3065C21.9032 17.3065 26.9597 18.6048 30.9436 20.9758C31.5968 21.3629 31.8548 21.8629 31.8548 22.5645C31.8468 23.4355 31.1694 24.1371 30.2903 24.1371ZM28.121 29.4274C27.7823 29.4274 27.5726 29.3226 27.2581 29.1371C22.2258 26.1048 16.371 25.9758 10.5887 27.1613C10.2742 27.2419 9.86291 27.371 9.62904 27.371C8.84678 27.371 8.35485 26.75 8.35485 26.0968C8.35485 25.2661 8.84678 24.871 9.45162 24.7419C16.0565 23.2823 22.8065 23.4113 28.5645 26.8548C29.0565 27.1694 29.3468 27.4516 29.3468 28.1855C29.3468 28.9194 28.7742 29.4274 28.121 29.4274Z" fill="black"/>
</svg>
