<svg width="40" height="40" viewBox="0 0 40 40" fill="none" xmlns="http://www.w3.org/2000/svg">
<rect width="40" height="40" rx="20" fill="#F1F3F5"/>
<g clip-path="url(#clip0_6100_289967)">
<path d="M32 12.0645C32 11.5301 31.5667 11.0968 31.0323 11.0968H8.96774C8.43326 11.0968 8 11.5301 8 12.0645V28.1291C8 30.2669 9.73313 32 11.871 32H28.129C30.2669 32 32 30.2669 32 28.1291V12.0645Z" fill="url(#paint0_linear_6100_289967)"/>
<path d="M19.6129 16.5161H14.9677V21.1613H19.6129V16.5161Z" fill="#F25022"/>
<path d="M25.0322 16.5161H20.3871V21.1613H25.0322V16.5161Z" fill="#7FBA00"/>
<path d="M19.6129 21.9355H14.9677V26.5806H19.6129V21.9355Z" fill="#00A4EF"/>
<path d="M25.0322 21.9355H20.3871V26.5806H25.0322V21.9355Z" fill="#FFB900"/>
<path opacity="0.8726" d="M18.7745 11.0968H9.61266C9.57037 11.3486 9.5484 11.6072 9.5484 11.871C9.5484 14.4365 11.6281 16.5162 14.1936 16.5162C16.759 16.5162 18.8387 14.4365 18.8387 11.871C18.8387 11.6072 18.8168 11.3486 18.7745 11.0968Z" fill="url(#paint1_radial_6100_289967)"/>
<path opacity="0.8726" d="M30.3874 11.0968H21.2256C21.1833 11.3486 21.1613 11.6072 21.1613 11.871C21.1613 14.4365 23.241 16.5162 25.8065 16.5162C28.372 16.5162 30.4516 14.4365 30.4516 11.871C30.4516 11.6072 30.4297 11.3486 30.3874 11.0968Z" fill="url(#paint2_radial_6100_289967)"/>
<path d="M13.4194 9.54839C13.4194 8.69319 14.1126 8 14.9678 8H25.0323C25.8875 8 26.5807 8.69319 26.5807 9.54839V11.871C26.5807 12.2985 26.234 12.6452 25.8065 12.6452C25.3789 12.6452 25.0323 12.2985 25.0323 11.871V9.54839H14.9678V11.871C14.9678 12.2985 14.6211 12.6452 14.1936 12.6452C13.766 12.6452 13.4194 12.2985 13.4194 11.871V9.54839Z" fill="url(#paint3_linear_6100_289967)"/>
<path d="M25.0322 8H14.9677V9.54839H25.0322V8Z" fill="url(#paint4_linear_6100_289967)"/>
</g>
<defs>
<linearGradient id="paint0_linear_6100_289967" x1="18.5841" y1="14.9953" x2="22.6898" y2="30.3455" gradientUnits="userSpaceOnUse">
<stop stop-color="#0669BC"/>
<stop offset="0.7147" stop-color="#1B4779"/>
<stop offset="1" stop-color="#233B61"/>
</linearGradient>
<radialGradient id="paint1_radial_6100_289967" cx="0" cy="0" r="1" gradientTransform="matrix(-2.09746 2.10546 2.21394 2.20554 14.1764 11.8663)" gradientUnits="userSpaceOnUse">
<stop stop-color="#1B4779"/>
<stop offset="1" stop-color="#0669BC" stop-opacity="0"/>
</radialGradient>
<radialGradient id="paint2_radial_6100_289967" cx="0" cy="0" r="1" gradientTransform="matrix(-2.09746 2.10546 2.21394 2.20554 25.7893 11.8663)" gradientUnits="userSpaceOnUse">
<stop stop-color="#1B4779"/>
<stop offset="1" stop-color="#0669BC" stop-opacity="0"/>
</radialGradient>
<linearGradient id="paint3_linear_6100_289967" x1="20" y1="8.69688" x2="20" y2="12.2099" gradientUnits="userSpaceOnUse">
<stop stop-color="#30DAFF"/>
<stop offset="1" stop-color="#0194D4"/>
</linearGradient>
<linearGradient id="paint4_linear_6100_289967" x1="20" y1="8.24574" x2="20" y2="9.36227" gradientUnits="userSpaceOnUse">
<stop stop-color="#1FB8FD"/>
<stop offset="1" stop-color="#0591F2"/>
</linearGradient>
<clipPath id="clip0_6100_289967">
<rect width="24" height="24" fill="white" transform="translate(8 8)"/>
</clipPath>
</defs>
</svg>
