<svg width="40" height="40" viewBox="0 0 40 40" fill="none" xmlns="http://www.w3.org/2000/svg">
<g clip-path="url(#clip0_40048151_219875)">
<rect width="40" height="40" rx="20" fill="#F0F0F0"/>
<g clip-path="url(#clip1_40048151_219875)">
<path d="M36.2433 31.6627C36.2433 20.9785 35.3001 1.75525 20.3125 1.56189C5.81231 1.37483 2.68704 20.7222 3.70257 31.5847C4.2846 32.4027 4.92661 33.1748 5.62063 33.8948C9.22472 37.6249 19.861 37.1869 19.861 37.1869C19.861 37.1869 31.7372 37.1989 35.4353 32.7147C35.7153 32.3747 35.9853 32.0247 36.2433 31.6627Z" fill="white"/>
<path d="M17.1569 4.98463C19.719 3.22859 23.2451 4.18261 24.5731 6.99069L36.2434 31.6653C38.5794 28.4192 39.9694 24.4451 39.9994 20.143C40.0774 9.09475 31.1852 0.0785112 20.139 0.00050927C9.09271 -0.0774927 0.0764826 8.81473 0.000480616 19.861C-0.0295201 24.2311 1.34651 28.2792 3.70258 31.5853L4.17059 31.4833L11.7868 29.8032C12.0008 29.7552 12.1148 30.0452 11.9268 30.1572L5.62062 33.8953C9.22471 37.6254 14.2649 39.9616 19.861 39.9996C26.1271 40.0436 31.7373 37.1994 35.4353 32.7153L16.3489 12.6228C14.2109 10.3708 14.5929 6.74068 17.1569 4.98463ZM20.739 27.6652L8.45069 28.7312C7.12066 28.8472 6.00263 27.7452 6.09863 26.4112C6.19463 25.0791 7.46067 24.1491 8.7607 24.4551L20.767 27.2832C20.981 27.3352 20.957 27.6452 20.739 27.6652ZM15.0509 16.8589L29.9512 28.9132C30.1212 29.0512 29.9672 29.3212 29.7612 29.2432L11.8388 22.4511C9.95873 21.7391 9.16471 19.515 10.1647 17.771C11.1668 16.0289 13.4888 15.5949 15.0509 16.8589Z" fill="#FF7800"/>
</g>
</g>
<defs>
<clipPath id="clip0_40048151_219875">
<rect width="40" height="40" rx="20" fill="white"/>
</clipPath>
<clipPath id="clip1_40048151_219875">
<rect width="40" height="40.0001" fill="white"/>
</clipPath>
</defs>
</svg>
