<svg width="40" height="40" viewBox="0 0 40 40" fill="none" xmlns="http://www.w3.org/2000/svg">
<g clip-path="url(#clip0_40038870_247622)">
<rect width="40" height="40" rx="20" fill="#0C3B7C"/>
<g clip-path="url(#clip1_40038870_247622)">
<path fill-rule="evenodd" clip-rule="evenodd" d="M40 8.02117C40 3.9003 36.633 0.554688 32.4876 0.554688H7.51233C3.36702 0.554688 0 3.9003 0 8.02117V31.9768C0 36.0965 3.36702 39.4433 7.51236 39.4433H32.4876C36.633 39.4433 40 36.0965 40 31.9768L40 8.02117Z" fill="#0C3B7C"/>
<path fill-rule="evenodd" clip-rule="evenodd" d="M0.00195312 24.7148H19.9795V39.4439H0.00196777L0.00195312 24.7148Z" fill="#0C3B7C"/>
<path d="M18.1786 26.2965L14.9569 26.2933V22.4638C14.9569 21.6456 15.2762 21.2197 15.9805 21.1224H18.1786C19.7461 21.1224 20.7602 22.1049 20.7602 23.6951C20.7602 25.3283 19.7718 26.2949 18.1786 26.2965ZM14.9569 15.9675V14.9595C14.9569 14.0775 15.3323 13.658 16.1554 13.6038H17.8048C19.2183 13.6038 20.0654 14.4443 20.0654 15.8527C20.0654 16.9245 19.4846 18.1765 17.8561 18.1765H14.9569V15.9675ZM22.2924 19.789L21.71 19.4637L22.2186 19.0314C22.8106 18.5258 23.8022 17.3886 23.8022 15.4268C23.8022 12.4219 21.4581 10.484 17.8304 10.484H13.691V10.4824H13.2193C12.1443 10.5223 11.2827 11.3916 11.2715 12.4666V29.5167H17.9123C21.9442 29.5167 24.5466 27.3348 24.5466 23.9551C24.5466 22.1352 23.7059 20.5801 22.2924 19.789Z" fill="white"/>
<path d="M26.2759 27.1629C26.2759 25.8604 27.3326 24.8066 28.6346 24.8066C29.9399 24.8066 31.0015 25.8604 31.0015 27.1629C31.0015 28.4637 29.9399 29.5191 28.6346 29.5191C27.3326 29.5191 26.2759 28.4637 26.2759 27.1629Z" fill="#00BAFC"/>
</g>
</g>
<defs>
<clipPath id="clip0_40038870_247622">
<rect width="40" height="40" rx="20" fill="white"/>
</clipPath>
<clipPath id="clip1_40038870_247622">
<rect width="40" height="38.8889" fill="white" transform="translate(0 0.554688)"/>
</clipPath>
</defs>
</svg>
