<svg width="40" height="40" viewBox="0 0 40 40" fill="none" xmlns="http://www.w3.org/2000/svg">
<g clip-path="url(#clip0_5959_5403)">
<path d="M20 0C8.95968 0 0 8.95968 0 20C0 31.0403 8.95968 40 20 40C31.0403 40 40 31.0403 40 20C40 8.95968 31.0403 0 20 0Z" fill="black"/>
<path fill-rule="evenodd" clip-rule="evenodd" d="M15.3921 9.97293C17.1424 9.05285 19.2108 8.83671 21.1499 9.11041C22.6245 9.32756 24.1536 9.92041 25.0585 11.1637C25.7594 12.1019 25.9069 13.3139 25.9402 14.4501V21.121C25.9402 21.7795 26.12 22.44 26.4735 22.9975C26.6886 23.3722 26.9896 23.6893 27.2128 24.059C27.3582 24.2953 27.3461 24.6448 27.1017 24.8104C26.3179 25.478 25.5403 26.1517 24.7646 26.8283C24.5172 27.0909 24.0485 27.1293 23.79 26.8627C23.2658 26.4092 22.778 25.9062 22.4073 25.3154C22.2973 25.173 22.2316 24.9862 22.0862 24.8771C21.4155 25.5174 20.7227 26.1708 19.8723 26.5708C19.2421 26.899 18.5361 27.0425 17.8362 27.1182C16.7151 27.201 15.5345 27.1758 14.5094 26.6607C13.4792 26.1759 12.6985 25.2386 12.3571 24.158C11.9097 22.7147 11.9602 21.1008 12.5833 19.7161C13.2297 18.288 14.5659 17.2649 16.0354 16.7892C17.7837 16.2156 19.637 16.1136 21.4539 15.9136C21.4186 14.9349 21.6317 13.7926 20.9166 12.9958C19.7097 11.8272 17.2959 12.3433 16.804 13.9967C16.7263 14.3703 16.5818 14.84 16.1294 14.8804C15.1244 14.7228 14.1054 14.6541 13.0954 14.5249C12.8106 14.5006 12.548 14.2411 12.5995 13.9431C12.8298 12.2736 13.8943 10.7516 15.3921 9.97293ZM18.0241 19.1596C17.3575 19.5444 16.8828 20.2403 16.7778 21.0028C16.6495 21.7714 16.7162 22.6349 17.1989 23.2753C17.6564 23.8944 18.526 24.0974 19.2431 23.8772C20.1319 23.6257 20.7692 22.847 21.1045 22.0178C21.5832 20.8887 21.4236 19.6373 21.4509 18.4446C20.2864 18.489 19.0502 18.5425 18.0241 19.1596Z" fill="white"/>
<path fill-rule="evenodd" clip-rule="evenodd" d="M28.4377 25.8643C29.4921 25.1523 30.8273 25.0048 32.0665 25.126C32.3968 25.1775 32.7472 25.223 33.031 25.4128C33.2239 25.6865 33.1451 26.0511 33.133 26.3652C32.9634 27.6206 32.4634 28.8861 31.5211 29.7628C31.3918 29.889 31.1383 30.0587 31.0333 29.8143C31.3555 28.876 31.7877 27.962 31.916 26.9692C31.9554 26.6955 31.9251 26.3228 31.607 26.237C30.5051 25.9148 29.3598 26.2774 28.2427 26.242C28.2528 26.0915 28.2902 25.937 28.4377 25.8643ZM7.17575 25.6057C6.94043 25.633 6.95659 25.9602 7.13434 26.0663C9.49667 28.2095 12.4064 29.7426 15.511 30.4748C18.6591 31.2283 21.993 31.1666 25.1139 30.3142C27.0782 29.782 28.9881 28.971 30.6313 27.759C30.8545 27.6419 30.9434 27.2904 30.7263 27.1268C30.5495 26.9631 30.295 27.0379 30.1021 27.1247C29.2335 27.4944 28.3417 27.8055 27.4358 28.0691C20.8346 30.0375 13.4568 29.1376 7.49389 25.7027C7.39492 25.6512 7.2919 25.5845 7.17575 25.6057Z" fill="#F8981D"/>
</g>
<defs>
<clipPath id="clip0_5959_5403">
<rect width="40" height="40" fill="white"/>
</clipPath>
</defs>
</svg>
