<svg width="40" height="40" viewBox="0 0 40 40" fill="none" xmlns="http://www.w3.org/2000/svg">
<rect width="40" height="40" rx="20" fill="#F1F3F5"/>
<g clip-path="url(#clip0_5936_74796)">
<path d="M28.3955 16.1816C28.2601 16.2896 25.8699 17.6744 25.8699 20.7536C25.8699 24.3152 28.9113 25.5752 29.0023 25.6064C28.9883 25.6832 28.5192 27.332 27.3988 29.012C26.3998 30.4904 25.3564 31.9664 23.7692 31.9664C22.1819 31.9664 21.7735 31.0184 19.9412 31.0184C18.1555 31.0184 17.5206 31.9976 16.0688 31.9976C14.617 31.9976 13.6039 30.6296 12.4392 28.9496C11.09 26.9768 10 23.912 10 21.0032C10 16.3376 12.9504 13.8632 15.8541 13.8632C17.3969 13.8632 18.683 14.9048 19.6517 14.9048C20.5737 14.9048 22.0115 13.8008 23.7668 13.8008C24.4321 13.8008 26.8222 13.8632 28.3955 16.1816ZM22.9335 11.8256C23.6595 10.94 24.173 9.7112 24.173 8.4824C24.173 8.312 24.159 8.1392 24.1286 8C22.9475 8.0456 21.5424 8.8088 20.6951 9.8192C20.0299 10.5968 19.409 11.8256 19.409 13.0712C19.409 13.2584 19.4393 13.4456 19.4533 13.5056C19.528 13.52 19.6494 13.5368 19.7708 13.5368C20.8305 13.5368 22.1633 12.8072 22.9335 11.8256Z" fill="black"/>
</g>
<defs>
<clipPath id="clip0_5936_74796">
<rect width="19" height="24" fill="white" transform="translate(10 8)"/>
</clipPath>
</defs>
</svg>
