<svg width="40" height="40" viewBox="0 0 40 40" fill="none" xmlns="http://www.w3.org/2000/svg">
<path d="M0 20C0 8.95431 8.95431 0 20 0C31.0457 0 40 8.95431 40 20C40 31.0457 31.0457 40 20 40C8.95431 40 0 31.0457 0 20Z" fill="#F0F0F0"/>
<path d="M16.0857 11.7398C16.3154 11.1356 16.6311 10.5793 17.1 10.1286C18.9756 8.29671 22.0761 8.75707 23.3488 11.0589C24.3058 12.8044 25.3201 14.5115 26.3058 16.2379C27.9517 19.1055 29.6168 21.9732 31.2436 24.8504C32.612 27.2577 31.1287 30.298 28.411 30.7104C26.746 30.9598 25.1862 30.1925 24.3249 28.6963C22.8799 26.174 21.4254 23.6516 19.9804 21.1388C19.9517 21.0812 19.9134 21.0333 19.8752 20.9853C19.7221 20.8607 19.6551 20.6784 19.5594 20.5154C18.9182 19.3837 18.2579 18.2615 17.6168 17.1394C17.2053 16.4105 16.7747 15.6912 16.3632 14.9623C15.99 14.3101 15.8177 13.6004 15.8369 12.8523C15.8656 12.4687 15.9134 12.0851 16.0857 11.7398Z" fill="#3C8BD9"/>
<path d="M16.0857 11.7402C15.9996 12.0855 15.923 12.4308 15.9039 12.7952C15.8752 13.6008 16.0762 14.3489 16.4781 15.0491C17.5307 16.8617 18.5833 18.684 19.6264 20.5062C19.7221 20.6693 19.7986 20.8323 19.8943 20.9858C19.3202 21.9832 18.746 22.9711 18.1623 23.9685C17.3585 25.3592 16.5546 26.7594 15.7412 28.1501C15.703 28.1501 15.6934 28.1309 15.6838 28.1021C15.6742 28.0254 15.703 27.9583 15.7221 27.8815C16.1144 26.4429 15.7891 25.1673 14.8034 24.074C14.2006 23.4122 13.435 23.0382 12.5546 22.9135C11.4063 22.7505 10.3919 23.0478 9.48286 23.7671C9.32018 23.8918 9.21492 24.074 9.02353 24.1699C8.98525 24.1699 8.96611 24.1507 8.95654 24.1219C9.41587 23.3259 9.86563 22.5299 10.325 21.7338C12.2197 18.4346 14.1144 15.1354 16.0187 11.8457C16.0379 11.8074 16.0666 11.7786 16.0857 11.7402Z" fill="#FABC04"/>
<path d="M8.995 24.1505C9.17682 23.9874 9.34907 23.8148 9.54046 23.6613C11.8658 21.8199 15.3586 23.153 15.8658 26.0686C15.9902 26.7688 15.9232 27.4401 15.7127 28.1115C15.7031 28.169 15.6936 28.217 15.6744 28.2745C15.5883 28.428 15.5118 28.591 15.4161 28.7445C14.5644 30.1543 13.3108 30.8544 11.6649 30.7489C9.77969 30.6147 8.29644 29.1952 8.03807 27.3154C7.91366 26.4043 8.09548 25.5507 8.56438 24.7643C8.66008 24.5916 8.77491 24.4382 8.88017 24.2656C8.92802 24.2272 8.90888 24.1505 8.995 24.1505Z" fill="#34A852"/>
<path d="M8.99493 24.1497C8.95666 24.1881 8.95666 24.2552 8.88967 24.2648C8.8801 24.1976 8.91838 24.1593 8.95666 24.1113L8.99493 24.1497Z" fill="#FABC04"/>
<path d="M15.6745 28.2744C15.6363 28.2072 15.6745 28.1593 15.7128 28.1113C15.7224 28.1209 15.7415 28.1401 15.7511 28.1497L15.6745 28.2744Z" fill="#E1C025"/>
</svg>
