<svg width="40" height="40" viewBox="0 0 40 40" fill="none" xmlns="http://www.w3.org/2000/svg">
<path d="M0 20C0 8.95431 8.95431 0 20 0C31.0457 0 40 8.95431 40 20C40 31.0457 31.0457 40 20 40C8.95431 40 0 31.0457 0 20Z" fill="black"/>
<path d="M27.3214 13.5622C27.1695 13.4837 27.0217 13.3977 26.8784 13.3044C26.4618 13.029 26.0799 12.7044 25.7408 12.3378C24.8923 11.367 24.5754 10.3822 24.4587 9.69266H24.4634C24.3659 9.12031 24.4062 8.75 24.4123 8.75H20.5479V23.6928C20.5479 23.8934 20.5479 24.0917 20.5395 24.2877C20.5395 24.312 20.5372 24.3345 20.5358 24.3608C20.5358 24.3716 20.5358 24.3828 20.5334 24.3941C20.5334 24.3969 20.5334 24.3997 20.5334 24.4025C20.4927 24.9386 20.3208 25.4566 20.0329 25.9107C19.7451 26.3648 19.35 26.7413 18.8825 27.0069C18.3952 27.2841 17.8441 27.4295 17.2836 27.4288C15.4831 27.4288 14.0239 25.9606 14.0239 24.1475C14.0239 22.3344 15.4831 20.8663 17.2836 20.8663C17.6244 20.8659 17.9631 20.9196 18.2872 21.0252L18.2918 17.0905C17.3081 16.9634 16.3087 17.0416 15.3567 17.3201C14.4047 17.5986 13.5207 18.0714 12.7606 18.7086C12.0945 19.2873 11.5346 19.9778 11.1059 20.7491C10.9428 21.0303 10.3273 22.1605 10.2528 23.9947C10.2059 25.0358 10.5186 26.1144 10.6676 26.5602V26.5695C10.7614 26.832 11.1247 27.7278 11.7167 28.483C12.1941 29.0887 12.7581 29.6208 13.3906 30.0622V30.0528L13.4 30.0622C15.2708 31.3334 17.345 31.25 17.345 31.25C17.704 31.2355 18.9068 31.25 20.2728 30.6027C21.7878 29.885 22.6503 28.8158 22.6503 28.8158C23.2013 28.1769 23.6394 27.4488 23.9459 26.6628C24.2956 25.7436 24.4123 24.6411 24.4123 24.2005V16.273C24.4592 16.3011 25.0836 16.7141 25.0836 16.7141C25.0836 16.7141 25.9831 17.2906 27.3865 17.6661C28.3934 17.9333 29.75 17.9895 29.75 17.9895V14.1533C29.2747 14.2048 28.3095 14.0548 27.3214 13.5622Z" fill="white"/>
</svg>
