<svg width="40" height="40" viewBox="0 0 40 40" fill="none" xmlns="http://www.w3.org/2000/svg">
<g clip-path="url(#clip0_40038870_247618)">
<rect width="40" height="40" rx="20" fill="#F0F0F0"/>
<g clip-path="url(#clip1_40038870_247618)">
<path d="M20 40C31.0457 40 40 31.0457 40 20C40 8.95431 31.0457 0 20 0C8.95431 0 0 8.95431 0 20C0 31.0457 8.95431 40 20 40Z" fill="url(#paint0_linear_40038870_247618)"/>
<path d="M13.5381 21.4616L15.9109 28.0292C15.9109 28.0292 16.2076 28.6437 16.5253 28.6437C16.8429 28.6437 21.5678 23.7284 21.5678 23.7284L26.8219 13.5801L13.6228 19.7662L13.5381 21.4616Z" fill="#C8DAEA"/>
<path d="M16.6842 23.1465L16.2287 27.9875C16.2287 27.9875 16.038 29.4708 17.521 27.9875C19.004 26.5041 20.4235 25.3603 20.4235 25.3603" fill="#A9C6D8"/>
<path d="M13.5809 21.6965L8.69986 20.1061C8.69986 20.1061 8.11652 19.8695 8.30436 19.3328C8.34302 19.2221 8.42102 19.128 8.65435 18.9661C9.73585 18.2123 28.672 11.4061 28.672 11.4061C28.672 11.4061 29.2067 11.226 29.522 11.3458C29.6 11.37 29.6702 11.4144 29.7254 11.4746C29.7806 11.5348 29.8189 11.6085 29.8362 11.6883C29.8703 11.8293 29.8845 11.9743 29.8785 12.1191C29.877 12.2445 29.8619 12.3606 29.8504 12.5428C29.735 14.4036 26.2837 28.2916 26.2837 28.2916C26.2837 28.2916 26.0772 29.1043 25.3374 29.1321C25.1555 29.138 24.9744 29.1072 24.8047 29.0416C24.6351 28.976 24.4804 28.8768 24.3499 28.7501C22.898 27.5013 17.88 24.129 16.7712 23.3873C16.7462 23.3703 16.7251 23.3481 16.7094 23.3222C16.6937 23.2963 16.6838 23.2674 16.6802 23.2373C16.6647 23.1591 16.7497 23.0623 16.7497 23.0623C16.7497 23.0623 25.4874 15.2956 25.7199 14.4803C25.7379 14.4171 25.6699 14.386 25.5785 14.4136C24.9982 14.6271 14.9379 20.9803 13.8275 21.6815C13.7476 21.7057 13.6631 21.7108 13.5809 21.6965Z" fill="white"/>
</g>
</g>
<defs>
<linearGradient id="paint0_linear_40038870_247618" x1="20" y1="40" x2="20" y2="0" gradientUnits="userSpaceOnUse">
<stop stop-color="#1D93D2"/>
<stop offset="1" stop-color="#38B0E3"/>
</linearGradient>
<clipPath id="clip0_40038870_247618">
<rect width="40" height="40" rx="20" fill="white"/>
</clipPath>
<clipPath id="clip1_40038870_247618">
<rect width="40" height="40" fill="white"/>
</clipPath>
</defs>
</svg>
