<svg width="40" height="40" viewBox="0 0 40 40" fill="none" xmlns="http://www.w3.org/2000/svg">
<path d="M0 20C0 8.95431 8.95431 0 20 0C31.0457 0 40 8.95431 40 20C40 31.0457 31.0457 40 20 40C8.95431 40 0 31.0457 0 20Z" fill="#F0F0F0"/>
<path d="M0 20C0 8.95431 8.95431 0 20 0C31.0457 0 40 8.95431 40 20C40 31.0457 31.0457 40 20 40C8.95431 40 0 31.0457 0 20Z" fill="url(#paint0_linear_40042378_11081)"/>
<g clip-path="url(#clip0_40042378_11081)">
<path d="M8.26782 23.1895C8.26782 24.3393 8.52138 25.222 8.85279 25.756C9.28731 26.4555 9.9354 26.7518 10.5961 26.7518C11.4483 26.7518 12.2279 26.5414 13.7303 24.4733C14.9339 22.8157 16.3522 20.489 17.3064 19.0304L18.9224 16.5592C20.045 14.8429 21.3444 12.9351 22.8342 11.6419C24.0504 10.5864 25.3624 10 26.6827 10C28.8995 10 31.0111 11.2785 32.6271 13.6764C34.3957 16.3026 35.2542 19.6105 35.2542 23.0241C35.2542 25.0534 34.8523 26.5445 34.1684 27.7225C33.5077 28.8618 32.2199 30 30.0537 30V26.7518C31.9085 26.7518 32.3714 25.0555 32.3714 23.1141C32.3714 20.3476 31.7234 17.2775 30.2957 15.0838C29.2825 13.5277 27.9695 12.577 26.5249 12.577C24.9626 12.577 23.7053 13.7497 22.2923 15.8408C21.5411 16.9518 20.7699 18.3058 19.9041 19.8335L18.9509 21.5141C17.036 24.8932 16.551 25.6628 15.5936 26.933C13.9155 29.1571 12.4825 30 10.5961 30C8.3583 30 6.94323 29.0356 6.06683 27.5822C5.3514 26.3979 5 24.844 5 23.0733L8.26782 23.1895Z" fill="white"/>
<path d="M7.57666 13.9058C9.07485 11.6073 11.2369 10 13.7167 10C15.1528 10 16.5805 10.423 18.0714 11.6346C19.7021 12.9592 21.4402 15.1403 23.6086 18.7351L24.3861 20.0251C26.263 23.1372 27.3309 24.7382 27.9558 25.4932C28.7597 26.4628 29.3225 26.7518 30.0537 26.7518C31.9086 26.7518 32.3715 25.0555 32.3715 23.1141L35.2543 23.0241C35.2543 25.0534 34.8524 26.5445 34.1685 27.7225C33.5078 28.8618 32.22 30 30.0537 30C28.707 30 27.514 29.7089 26.1946 28.4702C25.1804 27.5194 23.9947 25.8304 23.0825 24.312L20.3692 19.801C19.0077 17.5372 17.7589 15.8492 17.0361 15.0848C16.2586 14.2628 15.2591 13.2702 13.6641 13.2702C12.3732 13.2702 11.2769 14.1717 10.3595 15.5508L7.57666 13.9058Z" fill="white"/>
<path d="M13.664 13.2702C12.3731 13.2702 11.2768 14.1717 10.3594 15.5508C9.06216 17.4995 8.26782 20.4021 8.26782 23.1895C8.26782 24.3393 8.52138 25.222 8.85279 25.756L6.06683 27.5822C5.3514 26.3979 5 24.844 5 23.0733C5 19.8534 5.88797 16.4974 7.57659 13.9058C9.07479 11.6073 11.2369 10 13.7167 10L13.664 13.2702Z" fill="white"/>
</g>
<defs>
<linearGradient id="paint0_linear_40042378_11081" x1="5.55137" y1="24.5026" x2="35.6937" y2="25.6079" gradientUnits="userSpaceOnUse">
<stop stop-color="#0064E1"/>
<stop offset="0.4" stop-color="#0064E1"/>
<stop offset="0.83" stop-color="#0073EE"/>
<stop offset="1" stop-color="#0082FB"/>
</linearGradient>
<clipPath id="clip0_40042378_11081">
<rect width="31" height="20" fill="white" transform="translate(5 10)"/>
</clipPath>
</defs>
</svg>
